# xmcd CD database file
#
# Track frame offsets:
#	150
#	6406
#	28723
#	49277
#	69272
#	86826
#	111318
#	132742
#	152966
#
# Disc length: 2266 seconds
#
# Revision: 0
# Processed by: cddbd v1.5PL3 Copyright (c) Steve Scherf et al.
# Submitted via: CDex 1.50beta8
#
DISCID=8008d809
DTITLE=Victor Davies - Hoxton Popstars
DYEAR=1900
DGENRE=Jazz
TTITLE0=This one's For Every One
TTITLE1=Morning Sun
TTITLE2=Mama's Eyes
TTITLE3=Fly Away
TTITLE4=Be More Sad
TTITLE5=Fire
TTITLE6=May Be Tomorrow
TTITLE7=I Love You So
TTITLE8=Ba Da De Da
EXTD=
EXTT0=
EXTT1=
EXTT2=
EXTT3=
EXTT4=
EXTT5=
EXTT6=
EXTT7=
EXTT8=
PLAYORDER=
